<svg xmlns="http://www.w3.org/2000/svg" viewBox="0 0 64 64" id="basket"><path d="M10.54 30.09c-.69 0-1.36-.23-1.91-.67a3.019 3.019 0 0 1-1.15-2.06c-.1-.82.13-1.63.64-2.28l14-17.73a.97.97 0 0 1 1.52 1.2l-14 17.73a1.156 1.156 0 0 0 1.04 1.86c.31-.04.58-.19.77-.43L25.46 9.98a.97.97 0 0 1 1.52 1.2L12.97 28.91c-.51.65-1.24 1.06-2.06 1.15-.12.02-.25.03-.37.03z"></path><path d="M26.04 11.55c-.94 0-1.84-.31-2.59-.9a4.193 4.193 0 0 1-.7-5.89c.69-.88 1.69-1.44 2.8-1.57a4.193 4.193 0 0 1 3.79 6.76c-.69.88-1.69 1.44-2.8 1.57-.17.02-.33.03-.5.03zm.02-6.45c-.09 0-.18 0-.27.02a2.249 2.249 0 0 0-1.98 2.5 2.249 2.249 0 0 0 2.5 1.98 2.249 2.249 0 0 0 1.98-2.5 2.266 2.266 0 0 0-2.23-2zm27.4 24.99c-.12 0-.24-.01-.37-.02-.82-.1-1.55-.51-2.06-1.15L37.02 11.18a.97.97 0 0 1 1.52-1.2l14.01 17.73a1.156 1.156 0 0 0 1.62.19 1.156 1.156 0 0 0 .19-1.62l-14-17.73a.97.97 0 0 1 1.52-1.2l14 17.73c.51.65.74 1.46.64 2.28a3.097 3.097 0 0 1-3.06 2.73z"></path><path d="M37.96 11.55c-.17 0-.33-.01-.5-.03a4.157 4.157 0 0 1-2.8-1.57 4.15 4.15 0 0 1-.87-3.09c.13-1.11.69-2.11 1.57-2.8.88-.69 1.98-1 3.09-.87 1.11.13 2.11.69 2.8 1.57.69.88 1.01 1.98.87 3.09a4.157 4.157 0 0 1-1.57 2.8c-.75.59-1.65.9-2.59.9zm-.02-6.45c-.5 0-.99.17-1.39.49-.47.37-.77.91-.84 1.51-.07.6.1 1.19.47 1.66s.91.77 1.51.84a2.249 2.249 0 0 0 2.5-1.98 2.249 2.249 0 0 0-1.98-2.5c-.09-.01-.18-.02-.27-.02zm23.15 28.58H2.91c-1.6 0-2.91-1.3-2.91-2.91v-3.71c0-1.6 1.3-2.91 2.91-2.91h6.42c.54 0 .97.43.97.97s-.43.97-.97.97H2.91a.97.97 0 0 0-.97.97v3.71c0 .53.44.97.97.97h58.18c.53 0 .97-.43.97-.97v-3.71a.97.97 0 0 0-.97-.97h-6.43c-.54 0-.97-.43-.97-.97s.43-.97.97-.97h6.43c1.6 0 2.91 1.3 2.91 2.91v3.71c0 1.6-1.3 2.91-2.91 2.91z"></path><path d="M49.26 26.08H14.74c-.54 0-.97-.43-.97-.97s.43-.97.97-.97h34.52c.54 0 .97.43.97.97s-.43.97-.97.97zM51.43 60.84H12.57c-1.79 0-3.34-1.21-3.76-2.95L2.62 32.94a.976.976 0 0 1 .71-1.18.966.966 0 0 1 1.17.71l6.19 24.95c.21.87.99 1.47 1.88 1.47h38.86c.89 0 1.67-.61 1.88-1.47l6.19-24.95c.13-.52.66-.83 1.17-.71.52.13.84.66.71 1.18l-6.19 24.95a3.861 3.861 0 0 1-3.76 2.95z"></path><path d="M32 54.99c-1.6 0-2.91-1.3-2.91-2.91V39.23c0-1.6 1.3-2.91 2.91-2.91 1.6 0 2.91 1.31 2.91 2.91v12.85c0 1.6-1.31 2.91-2.91 2.91zm0-16.73a.97.97 0 0 0-.97.97v12.85a.97.97 0 0 0 1.94 0V39.23c0-.54-.43-.97-.97-.97zm11.37 16.65c-.19 0-.37-.02-.56-.05-.76-.15-1.42-.59-1.85-1.23-.43-.64-.59-1.42-.44-2.18L43 38.75c.15-.76.59-1.42 1.23-1.86.65-.43 1.42-.59 2.18-.44 1.57.31 2.6 1.84 2.3 3.41l-2.48 12.7a2.923 2.923 0 0 1-2.86 2.35zm2.47-16.58c-.19 0-.38.06-.54.17-.22.14-.36.36-.41.62l-2.48 12.7c-.05.25 0 .51.15.73.14.21.36.36.62.41.55.1 1.04-.25 1.14-.77l2.48-12.7a.975.975 0 0 0-.77-1.14c-.06-.01-.12-.02-.19-.02zM20.63 54.91c-1.39 0-2.59-.99-2.85-2.35l-2.48-12.7a2.909 2.909 0 0 1 4.48-2.97c.65.43 1.08 1.09 1.23 1.86l2.48 12.7c.15.76-.01 1.54-.44 2.18a2.892 2.892 0 0 1-2.42 1.28zm-2.47-16.58c-.06 0-.12.01-.19.02a.97.97 0 0 0-.77 1.14l2.48 12.7c.1.52.61.87 1.14.77.26-.05.48-.2.62-.41.14-.21.2-.47.15-.73l-2.48-12.7c-.05-.25-.2-.47-.41-.62a.984.984 0 0 0-.54-.17z"></path></svg>