<svg xmlns="http://www.w3.org/2000/svg" fill-rule="evenodd" stroke-linejoin="round" stroke-miterlimit="2" clip-rule="evenodd" viewBox="0 0 32 32" id="gold-bar"><g transform="scale(.21157 .17778)"><rect width="151.25" height="180" fill="none"></rect><clipPath id="a"><rect width="151.25" height="180"></rect></clipPath><g clip-path="url(#a)"><path d="M98.155,60.788C98.054,60.398 97.69,60.125 97.273,60.125L82.727,60.125C82.31,60.125 81.946,60.398 81.845,60.788L80.027,67.788C79.959,68.049 80.02,68.326 80.193,68.538C80.365,68.751 80.629,68.875 80.909,68.875L99.091,68.875C99.371,68.875 99.635,68.751 99.807,68.538C99.98,68.326 100.041,68.049 99.973,67.788L98.155,60.788ZM83.437,61.875L82.073,67.125L97.927,67.125L96.563,61.875L83.437,61.875Z" transform="matrix(5.19922 0 0 6.42857 -392.305 -307.768)"></path><path d="M98.565,60.783C98.414,60.396 97.882,60.125 97.273,60.125L82.727,60.125C82.118,60.125 81.586,60.396 81.435,60.783L78.708,67.783C78.606,68.045 78.694,68.323 78.947,68.537C79.199,68.75 79.588,68.875 80,68.875L100,68.875C100.412,68.875 100.801,68.75 101.053,68.537C101.306,68.323 101.394,68.045 101.292,67.783L98.565,60.783ZM83.763,61.875L81.717,67.125L98.283,67.125L96.237,61.875L83.763,61.875Z" transform="matrix(3.54492 0 0 6.42857 -278.867 -262.768)"></path><path d="M98.565,60.783C98.414,60.396 97.882,60.125 97.273,60.125L82.727,60.125C82.118,60.125 81.586,60.396 81.435,60.783L78.708,67.783C78.606,68.045 78.694,68.323 78.947,68.537C79.199,68.75 79.588,68.875 80,68.875L100,68.875C100.412,68.875 100.801,68.75 101.053,68.537C101.306,68.323 101.394,68.045 101.292,67.783L98.565,60.783ZM83.763,61.875L81.717,67.125L98.283,67.125L96.237,61.875L83.763,61.875Z" transform="matrix(3.54492 0 0 6.42857 -207.969 -262.768)"></path><path d="M89,38L89,49C89,49.607 89.448,50.1 90,50.1C90.552,50.1 91,49.607 91,49L91,38C91,37.393 90.552,36.9 90,36.9C89.448,36.9 89,37.393 89,38Z" transform="matrix(4.72656 0 0 5.11364 -349.766 -188.693)"></path><path d="M89,38L89,49C89,49.613 89.448,50.111 90,50.111C90.552,50.111 91,49.613 91,49L91,38C91,37.387 90.552,36.889 90,36.889C89.448,36.889 89,37.387 89,38Z" transform="matrix(3.34218 3.97748 -3.00781 3.57955 -58.883 -471.496)"></path><path d="M91,38L91,49C91,49.613 90.552,50.111 90,50.111C89.448,50.111 89,49.613 89,49L89,38C89,37.387 89.448,36.889 90,36.889C90.552,36.889 91,37.387 91,38Z" transform="matrix(-3.34218 3.97748 3.00781 3.57955 210.133 -471.496)"></path></g></g></svg>