<svg xmlns="http://www.w3.org/2000/svg" viewBox="0 0 40 40" id="shopping-cart"><path d="M38.9 11.9c-.8-.9-1.9-1.5-3.1-1.5H20.4c-.5 0-1 .4-1 1s.5 1 1 1h15.4c.6 0 1.2.3 1.6.7.4.5.6 1.1.4 1.7l-.9 5h-11c-.5 0-1 .4-1 1s.5 1 1 1h10.7l-.9 4.8c-.1.7-.8 1.2-1.5 1.2H15c-.7 0-1.3-.5-1.5-1.2L9.6 4.9c-.1-.5-.5-.8-1-.8H.9c-.5 0-1 .4-1 1s.5 1 1 1h6.9l3.8 21c.2 1.4 1.2 2.4 2.5 2.8-.5.7-.9 1.6-.9 2.6 0 2.5 2 4.5 4.5 4.5s4.5-2 4.5-4.5c0-.9-.3-1.8-.8-2.5h6.1c-.5.7-.8 1.6-.8 2.5 0 2.5 2 4.5 4.5 4.5s4.5-2 4.5-4.5c0-1-.3-1.9-.8-2.6 1.3-.3 2.4-1.4 2.7-2.8l2.2-11.8c.2-1.2-.1-2.4-.9-3.4zM20.2 32.4c0 1.4-1.1 2.5-2.5 2.5s-2.5-1.1-2.5-2.5 1.1-2.5 2.5-2.5 2.5 1.1 2.5 2.5zm11.1 2.5c-1.4 0-2.5-1.1-2.5-2.5s1.1-2.5 2.5-2.5 2.5 1.1 2.5 2.5-1.1 2.5-2.5 2.5z"></path></svg>